<?xml version="1.0" standalone="no"?><!DOCTYPE svg PUBLIC "-//W3C//DTD SVG 1.1//EN" "http://www.w3.org/Graphics/SVG/1.1/DTD/svg11.dtd"><svg t="1665990941823" class="icon" viewBox="0 0 1024 1024" version="1.1" xmlns="http://www.w3.org/2000/svg" p-id="1945" xmlns:xlink="http://www.w3.org/1999/xlink" width="200" height="200"><path d="M331.113472 258.56c-71.559168 1.987584-131.192832 26.834944-178.898944 74.541056C104.50944 380.807168 79.661056 440.440832 77.673472 512c1.987584 71.559168 26.834944 131.192832 74.541056 178.898944 47.706112 47.706112 107.339776 72.553472 178.898944 74.541056h361.773056c71.559168-1.987584 131.192832-26.834944 178.898944-74.541056C919.49056 643.192832 944.338944 583.559168 946.326528 512c-1.987584-71.559168-26.834944-131.192832-74.541056-178.898944-47.706112-47.706112-107.339776-72.553472-178.898944-74.541056H331.113472z m0-72.553472h361.773056c92.099584 2.650112 168.794112 34.620416 230.083584 95.909888C984.259584 343.205888 1016.229888 419.900416 1018.88 512c-2.650112 92.099584-34.620416 168.794112-95.909888 230.083584-61.289472 61.289472-137.984 93.259776-230.083584 95.909888H331.113472c-92.099584-2.650112-168.794112-34.620416-230.083584-95.909888C39.740416 680.794112 7.770112 604.099584 5.12 512c2.650112-92.099584 34.620416-168.794112 95.909888-230.083584 61.289472-61.289472 137.984-93.259776 230.083584-95.909888z m361.773056 434.326528c19.877888 0 38.098944-4.803584 54.663168-14.410752 16.565248-9.608192 29.650944-22.859776 39.259136-39.755776 9.607168-16.896 14.410752-34.951168 14.410752-54.166528s-4.803584-37.270528-14.410752-54.166528c-9.608192-16.896-22.693888-30.147584-39.259136-39.755776-16.564224-9.607168-34.78528-14.410752-54.663168-14.410752-30.47936 0.662528-55.988224 11.264-76.52864 31.804416-20.54144 20.540416-31.141888 46.04928-31.80544 76.52864 0.663552 30.47936 11.264 55.988224 31.80544 76.52864 20.540416 20.54144 46.04928 31.141888 76.52864 31.80544z m0 72.553472c-51.019776-1.325056-93.590528-19.049472-127.71328-53.172224C531.048448 605.590528 513.324032 563.019776 512 512c1.325056-51.018752 19.049472-93.590528 53.172224-127.71328 34.123776-34.123776 76.694528-51.848192 127.714304-53.173248 51.019776 1.325056 93.590528 19.049472 127.71328 53.172224C854.724608 418.409472 872.448 460.981248 873.77408 512c-1.325056 51.019776-19.049472 93.590528-53.172224 127.71328-34.123776 34.123776-76.694528 51.848192-127.714304 53.173248z" p-id="1946"></path></svg>